<?xml version="1.0" encoding="UTF-8"?>
<svg width="56px" height="56px" viewBox="0 0 56 56" version="1.1" xmlns="http://www.w3.org/2000/svg" xmlns:xlink="http://www.w3.org/1999/xlink">
    <!-- Generator: Sketch 57.1 (83088) - https://sketch.com -->
    <title>Info Icon</title>
    <desc>Created with Sketch.</desc>
    <g id="Icons" stroke="none" stroke-width="1" fill="none" fill-rule="evenodd">
        <g id="Artboard" transform="translate(-247.000000, -343.000000)" fill="#00B1F5">
            <g id="Info-Icon" transform="translate(247.000000, 343.000000)">
                <g id="Shape">
                    <path d="M28,0 C12.5365333,0 0,12.5365333 0,28 C0,43.4634667 12.5365333,56 28,56 C43.4634667,56 56,43.4634667 56,28 C56,12.5365333 43.4634667,0 28,0 Z M24.7644444,27.2682667 C24.7644444,25.4813187 26.213052,24.0327111 28,24.0327111 C29.786948,24.0327111 31.2355556,25.4813187 31.2355556,27.2682667 L31.2355556,40.0860444 C31.2355556,41.8729924 29.786948,43.3216 28,43.3216 C26.213052,43.3216 24.7644444,41.8729924 24.7644444,40.0860444 L24.7644444,27.2682667 Z M28,20.5022222 C26.4270913,20.5022222 25.0090613,19.5547249 24.4071352,18.1015467 C23.805209,16.6483685 24.1379259,14.9756881 25.2501403,13.8634736 C26.3623547,12.7512592 28.0350352,12.4185424 29.4882133,13.0204685 C30.9413915,13.6223946 31.8888889,15.0404246 31.8888889,16.6133333 C31.8888889,18.7611074 30.147774,20.5022222 28,20.5022222 Z" fill-rule="nonzero"></path>
                </g>
            </g>
        </g>
    </g>
</svg>