<?xml version="1.0" encoding="UTF-8"?>
<svg width="74px" height="48px" viewBox="0 0 74 48" version="1.1" xmlns="http://www.w3.org/2000/svg" xmlns:xlink="http://www.w3.org/1999/xlink">
    <!-- Generator: Sketch 57.1 (83088) - https://sketch.com -->
    <title>Bulletpoint</title>
    <desc>Created with Sketch.</desc>
    <g id="Icons" stroke="none" stroke-width="1" fill="none" fill-rule="evenodd">
        <g id="Artboard" transform="translate(-507.000000, -411.000000)" fill="#00B1F5">
            <g id="Bulletpoint" transform="translate(507.000000, 411.000000)">
                <g id="noun_code_787514">
                    <g id="Group" fill-rule="nonzero">
                        <g id="a-link">
                            <g id="a">
                                <path d="M2.25,21.2 C1.48333333,21.4 0.916666667,21.7333333 0.55,22.2 C0.183333333,22.6333333 0,23.25 0,24.05 C0,24.9166667 0.216666667,25.5833333 0.65,26.05 C1.05,26.5166667 1.68333333,26.8333333 2.55,27 C2.65,27 2.75,27.0166667 2.85,27.05 C5.81666667,27.5166667 7.3,29.3833333 7.3,32.65 L7.3,35.75 C7.3,38.75 7.48333333,40.85 7.85,42.05 C8.21666667,43.2833333 8.81666667,44.2833333 9.65,45.05 C10.4166667,45.7833333 11.4,46.3666667 12.6,46.8 C13.7666667,47.2 14.9833333,47.4 16.25,47.4 C17.25,47.4 18.05,47.15 18.65,46.65 C19.2166667,46.15 19.5,45.4833333 19.5,44.65 C19.5,42.95 18.4833333,41.95 16.45,41.65 L15.55,41.5 C14.75,41.3333333 14.2,41.0166667 13.9,40.55 C13.6,40.0833333 13.45,38.9666667 13.45,37.2 L13.45,33.15 C13.45,30.2833333 13.1833333,28.2666667 12.65,27.1 C12.1166667,25.9333333 11.1666667,24.9166667 9.8,24.05 C11.1333333,23.2166667 12.0833333,22.1666667 12.65,20.9 C13.1833333,19.6333333 13.45,17.65 13.45,14.95 L13.45,10.95 C13.45,9.15 13.6166667,8 13.95,7.5 C14.2833333,6.96666667 14.9,6.63333333 15.8,6.5 C15.9666667,6.46666667 16.1166667,6.43333333 16.25,6.4 C18.4166667,6.06666667 19.5,5.05 19.5,3.35 C19.5,2.55 19.2166667,1.9 18.65,1.4 C18.0833333,0.9 17.3166667,0.65 16.35,0.65 C14.8166667,0.65 13.4166667,0.916666667 12.15,1.45 C10.8833333,1.95 9.86666667,2.66666667 9.1,3.6 C8.46666667,4.43333333 8.01666667,5.4 7.75,6.5 C7.45,7.6 7.3,9.53333333 7.3,12.3 L7.3,15.5 C7.3,18.6333333 6.11666667,20.4166667 3.75,20.85 L2.25,21.2 L2.25,21.2 Z M44.1,4.25 C43.6666667,4.65 43.2,5.4 42.7,6.5 L26.85,40.5 C26.35,41.6 26.1,42.4166667 26.1,42.95 C26.1,43.7166667 26.4333333,44.3666667 27.1,44.9 C27.7333333,45.4 28.45,45.65 29.25,45.65 C29.8166667,45.65 30.3166667,45.45 30.75,45.05 C31.15,44.6166667 31.6,43.8666667 32.1,42.8 L47.95,8.9 L48.55,7.35 L48.7,6.35 C48.7,5.55 48.3833333,4.9 47.75,4.4 C47.0833333,3.86666667 46.35,3.6 45.55,3.6 C44.9833333,3.6 44.5,3.81666667 44.1,4.25 L44.1,4.25 Z M73.5,22.2 C73.1333333,21.7333333 72.5666667,21.4 71.8,21.2 L70.45,20.95 C67.95,20.45 66.7,18.6333333 66.7,15.5 L66.7,12.3 C66.7,9.26666667 66.5333333,7.15 66.2,5.95 C65.8333333,4.75 65.2,3.75 64.3,2.95 C63.5333333,2.21666667 62.5666667,1.65 61.4,1.25 C60.2666667,0.85 59.0333333,0.65 57.7,0.65 C56.6666667,0.65 55.8833333,0.9 55.35,1.4 C54.7833333,1.9 54.5,2.61666667 54.5,3.55 C54.5,4.41666667 54.7166667,5.06666667 55.15,5.5 C55.5833333,5.93333333 56.4666667,6.23333333 57.8,6.4 C58.8,6.56666667 59.5166667,6.86666667 59.95,7.3 C60.3833333,7.73333333 60.6,8.38333333 60.6,9.25 L60.6,14.95 C60.6,17.65 60.8666667,19.6333333 61.4,20.9 C61.9666667,22.1666667 62.9,23.2166667 64.2,24.05 C62.8666667,24.9166667 61.9333333,25.9333333 61.4,27.1 C60.8666667,28.2666667 60.6,30.2833333 60.6,33.15 L60.6,38.6 C60.6,39.5666667 60.4166667,40.2666667 60.05,40.7 C59.65,41.1333333 58.9,41.4333333 57.8,41.6 C56.4666667,41.8 55.5833333,42.1166667 55.15,42.55 C54.7166667,42.9833333 54.5,43.6333333 54.5,44.5 C54.5,45.4 54.8,46.1166667 55.4,46.65 C55.9333333,47.15 56.7166667,47.4 57.75,47.4 C59.1833333,47.4 60.5666667,47.1333333 61.9,46.6 C63.2333333,46.0666667 64.25,45.3833333 64.95,44.55 C65.5833333,43.75 66.0333333,42.8 66.3,41.7 C66.5666667,40.6 66.7,38.6166667 66.7,35.75 L66.7,32.65 C66.7,29.45 67.9833333,27.6166667 70.55,27.15 L71.75,26.9 C72.5166667,26.7333333 73.0833333,26.4166667 73.45,25.95 C73.8166667,25.45 74,24.8166667 74,24.05 C74,23.2833333 73.8333333,22.6666667 73.5,22.2 Z" id="Shape"></path>
                            </g>
                        </g>
                    </g>
                </g>
            </g>
        </g>
    </g>
</svg>